<svg xmlns="http://www.w3.org/2000/svg" viewBox="0 0 35.3 35.3"><title>website</title><g id="Layer_2" data-name="Layer 2"><g id="Layer_1-2" data-name="Layer 1"><path fill="#fff" d="M35.29,3.27s0-.08,0-.12,0-.15,0-.23l0-.16c0-.06,0-.13,0-.19l-.05-.15L35,2.24,35,2.1l-.09-.18-.08-.13-.11-.17-.1-.14-.11-.15-.21-.23,0,0,0,0L34,.82,33.83.72l-.14-.1-.17-.1L33.39.43,33.21.35,33.06.28,32.89.21,32.73.16l-.17,0-.17,0-.2,0L32,0l-.36,0H20.07a3.63,3.63,0,1,0,0,7.26H22.9l-7.82,7.82a3.63,3.63,0,1,0,5.14,5.14L28,12.4v2.9a3.63,3.63,0,1,0,7.26,0V3.64A3.64,3.64,0,0,0,35.29,3.27Z"/><path fill="#fff" d="M31.67,21.13A3.63,3.63,0,0,0,28,24.77v3a.24.24,0,0,1-.24.24H7.51a.24.24,0,0,1-.24-.24V7.51a.24.24,0,0,1,.24-.24h3.1A3.63,3.63,0,1,0,10.6,0H7.51A7.51,7.51,0,0,0,0,7.51V27.8A7.51,7.51,0,0,0,7.51,35.3H27.8A7.51,7.51,0,0,0,35.3,27.8v-3A3.63,3.63,0,0,0,31.67,21.13Z"/></g></g></svg>