<?xml version="1.0" standalone="no"?>
<!DOCTYPE svg PUBLIC "-//W3C//DTD SVG 20010904//EN"
 "http://www.w3.org/TR/2001/REC-SVG-20010904/DTD/svg10.dtd">
<svg version="1.0" xmlns="http://www.w3.org/2000/svg"
 width="400.000000pt" height="400.000000pt" viewBox="0 0 400.000000 400.000000"
 preserveAspectRatio="xMidYMid meet">
<metadata>
Created by potrace 1.11, written by Peter Selinger 2001-2013
</metadata>
<g transform="translate(0.000000,400.000000) scale(0.100000,-0.100000)"
fill="#000000" stroke="none">
<path d="M2185 3749 c-17 -4 -41 -11 -55 -17 -28 -12 -94 -69 -96 -83 -1 -5
-2 -11 -3 -14 0 -3 -18 6 -39 20 -95 63 -180 26 -194 -84 -3 -24 6 -50 24 -71
19 -23 22 -23 31 -8 10 15 12 14 22 -5 8 -16 18 -21 38 -19 26 3 34 -9 28 -42
-1 -5 5 -43 14 -85 14 -70 14 -81 0 -107 -8 -16 -15 -42 -15 -59 -1 -62 -58
-148 -105 -157 -11 -2 -20 -11 -20 -21 0 -9 -11 -25 -25 -34 -14 -10 -42 -33
-63 -53 -40 -37 -94 -70 -113 -70 -6 0 -17 -6 -23 -14 -7 -8 -23 -17 -37 -20
-14 -4 -47 -23 -74 -42 -27 -20 -60 -35 -72 -34 -53 5 -76 -2 -108 -29 -31
-25 -35 -34 -36 -83 -3 -76 -50 -148 -138 -208 -36 -25 -70 -55 -77 -66 -6
-12 -22 -28 -35 -35 -13 -7 -24 -19 -24 -26 0 -7 -6 -16 -14 -19 -23 -9 -38
-57 -27 -86 5 -14 7 -28 5 -31 -3 -3 -7 -23 -9 -45 -2 -23 -6 -46 -10 -52 -13
-22 -16 -103 -5 -131 14 -34 30 -40 70 -29 29 8 31 7 54 -38 13 -26 27 -63 31
-82 4 -19 18 -71 32 -115 31 -98 33 -118 16 -174 -17 -56 -9 -160 22 -311 7
-36 16 -91 20 -123 4 -39 11 -57 20 -57 8 0 19 -9 25 -19 13 -25 13 -61 0 -61
-5 0 -10 -6 -10 -14 0 -8 -9 -30 -20 -49 -27 -46 -18 -79 32 -120 53 -43 87
-75 123 -119 17 -20 48 -44 69 -54 36 -18 38 -20 32 -56 -7 -40 14 -98 35 -98
6 0 8 -4 4 -9 -3 -5 -1 -12 4 -15 5 -3 15 -30 21 -58 7 -29 17 -59 23 -65 7
-10 103 -13 418 -13 l409 0 -58 112 c-105 200 -175 428 -197 633 -22 215 -22
490 0 595 3 14 7 41 10 60 7 60 34 190 52 249 9 31 18 61 19 66 9 43 83 226
134 328 149 306 384 587 673 805 79 60 86 68 65 73 -24 7 -66 1 -83 -11 -14
-10 -49 -18 -119 -25 -69 -8 -142 -38 -159 -66 -16 -25 -27 -24 -27 3 0 12 -6
29 -14 37 -15 17 -46 158 -46 207 0 16 -7 39 -15 52 -12 16 -13 27 -6 41 6 10
8 21 5 23 -3 3 -7 18 -10 34 -10 57 -71 99 -163 114 -71 12 -170 80 -117 80 8
0 17 7 20 15 4 12 10 13 25 6 10 -6 54 -18 97 -26 63 -13 86 -23 114 -50 48
-45 94 -67 109 -52 28 28 -4 91 -56 108 -21 6 -75 29 -120 50 -45 21 -99 42
-120 48 -41 11 -140 11 -188 0z m455 -163 c0 -3 -4 -8 -10 -11 -5 -3 -10 -1
-10 4 0 6 5 11 10 11 6 0 10 -2 10 -4z m-130 -263 c17 -21 39 -65 49 -98 l18
-59 -21 -11 c-27 -13 -32 -48 -11 -69 15 -15 14 -18 -12 -41 -15 -13 -31 -25
-35 -25 -9 0 -68 91 -68 105 0 7 -8 23 -18 36 -9 13 -25 41 -34 61 l-17 36 47
50 c26 28 52 50 59 51 6 1 26 -16 43 -36z m-322 1 c31 -6 27 -23 -5 -21 -23 2
-29 -2 -31 -25 -2 -18 4 -31 18 -41 17 -12 20 -19 12 -34 -8 -15 -5 -33 15
-79 36 -86 38 -89 59 -92 10 -2 28 -14 40 -25 11 -12 44 -42 73 -66 29 -25 56
-52 61 -62 10 -18 6 -24 -130 -174 -124 -137 -160 -187 -160 -224 0 -33 -18
-61 -45 -71 -13 -5 -43 -35 -67 -67 -24 -32 -50 -63 -59 -70 -9 -7 -22 -26
-29 -43 -15 -36 -20 -37 -73 -6 -36 20 -135 58 -287 110 -39 14 -42 36 -10 71
29 32 42 98 34 175 -9 95 -3 114 49 138 24 11 49 27 56 36 8 9 19 16 25 16 17
1 119 101 145 143 27 45 74 79 95 71 9 -4 16 -1 16 6 0 7 8 19 18 26 14 11 14
13 2 14 -29 0 -22 60 10 97 17 18 30 37 31 41 4 32 17 107 19 107 1 0 3 11 4
23 4 38 29 44 114 26z m-1200 -1128 c-2 -18 -7 -23 -16 -17 -9 5 -11 17 -6 35
8 34 27 20 22 -18z m567 -161 c78 -23 84 -34 57 -109 -24 -64 -29 -82 -37
-118 -19 -92 -34 -122 -60 -123 -5 0 -14 -13 -18 -30 -5 -16 -15 -43 -21 -60
-7 -16 -10 -39 -7 -50 14 -46 28 -58 87 -67 33 -5 66 -11 74 -13 8 -2 22 -4
31 -4 8 -1 23 -7 32 -14 16 -11 16 -16 -9 -67 -14 -30 -32 -62 -39 -70 -13
-15 -51 -120 -47 -131 1 -4 -3 -33 -9 -65 -5 -33 -12 -77 -15 -99 -3 -22 -19
-99 -35 -171 -16 -72 -29 -142 -29 -154 0 -23 0 -23 -21 -4 -30 27 -62 93 -55
116 3 13 -4 29 -19 43 -12 13 -31 44 -40 69 l-17 44 33 30 34 30 0 114 c-1
116 -6 174 -26 296 -10 59 -9 77 3 109 12 30 14 84 12 266 -3 216 -2 227 16
227 10 0 22 5 25 10 9 14 38 12 100 -5z m210 -325 c53 20 56 14 25 -52 -17
-35 -30 -71 -30 -80 0 -52 -58 20 -74 91 -7 33 10 54 34 41 12 -7 28 -7 45 0z"/>
</g>
</svg>
